<svg xmlns="http://www.w3.org/2000/svg" version="1.1" xmlns:xlink="http://www.w3.org/1999/xlink" xmlns:svgjs="http://svgjs.dev/svgjs" width="1000" height="1000" viewBox="0 0 1000 1000"><rect width="1000" height="1000" fill="#ff0000"></rect><g transform="matrix(0.7,0,0,0.7,150.0000000000001,106.25)"><svg viewBox="0 0 320 360" data-background-color="#ff0000" preserveAspectRatio="xMidYMid meet" height="1125" width="1000" xmlns="http://www.w3.org/2000/svg" xmlns:xlink="http://www.w3.org/1999/xlink"><g id="tight-bounds" transform="matrix(1,0,0,1,0,0)"><svg viewBox="0 0 320 360" height="360" width="320"><g><svg></svg></g><g><svg viewBox="0 0 320 360" height="360" width="320"><g><path xmlns="http://www.w3.org/2000/svg" d="M20.961 227.22l3.726 4.658-1.863-6.056c-0.466-2.795-3.726 0.466-1.863 1.398M25.153 224.425c1.397 2.329 2.795 4.658 2.795 6.987 0 3.261 2.795 4.658 5.123 5.589-3.261-3.726-5.124-13.974-7.918-12.576M204.017 26.929c7.918 0 15.371-0.932 23.756 0.931 20.495 5.124 37.729 15.371 49.374 29.811l32.606 52.169c1.397 13.042 4.192 27.482 3.726 43.319 3.261 0 2.795-4.658 6.521-5.59-3.726 9.316-5.59 20.961-6.521 34.469-2.329-7.453 0-18.632 0.466-24.687-3.261 5.124-5.124 1.397-5.124-0.932 0.466-3.726-1.397-3.261-2.795-4.658-5.124-4.658-8.384-9.782-12.11-17.7 2.329-6.055 2.795-14.905-4.658-19.563-2.329-1.397-5.124-3.726-6.521-7.453-1.863-5.124-5.124-11.179-4.193-19.097 0.466-2.329-6.987 5.124-11.179 1.863-18.166-12.576-36.332-27.016-58.224-39.127-11.645 0-20.029-4.192-24.221-9.316-3.726-4.658-0.932-10.713 4.658-11.179 3.261 0 6.987-0.932 9.782 0.932 0.466-1.863 2.329-4.192 4.657-4.192M157.904 16.215l0.932 0.466c4.658 0.932 6.987 7.453 12.11 5.124 0 3.261 0.466 6.521-0.466 8.85-1.397 3.726-5.59 3.726-8.85 3.726-31.208-1.863-49.374 11.179-68.471 22.358-5.124 3.261-10.713 5.59-14.906 9.782-20.029 18.632-41.921 35.866-47.045 70.335l-4.192 38.195c-0.466 4.192-5.124 8.384-4.192 13.508l3.26 22.824c-3.261-3.261-5.124 0.932-4.192 2.795 0.466 1.397 2.329 6.055 5.124 1.863 3.726 6.987 7.453 20.495 12.576 26.55 15.837 18.632 36.332 35.4 53.101 52.169 4.192-0.932 7.453-0.932 8.384-3.727 1.397 2.795-1.397 5.59-3.726 6.056 7.453 4.658 15.837 8.85 27.016 9.781 14.44 0.932 27.948 3.261 40.524 6.522 6.521-1.863 13.042-2.795 20.029-3.261 2.329 0 3.726-3.726 6.521-4.658l0.466-4.658c2.795 4.192 2.329-1.397 0.466-4.192 3.261 2.795 4.192 5.124 5.589 6.987 0-1.397 3.726-6.521 3.727-0.466l0.931-6.055c1.397-0.932 1.863 5.124 3.261 0.931 1.397-4.192 4.192-0.932 6.987-2.329-0.932 1.863-0.466 5.59 2.794 3.261l3.727-3.261c2.329 5.59 6.055 3.261 7.918 2.329 20.495-13.042 40.99-28.413 60.553-43.784l-0.466 6.055 2.329-7.453c2.329 2.329 4.192 0.466 5.124-0.931 2.795-4.658 6.521-9.316 12.577-13.508-7.453 20.029-16.303 35.866-27.482 48.908l-4.658 5.59c0 3.261-0.932 7.453-4.658 7.918-1.863 0.466-5.59-0.932-8.384 1.863-1.397 1.863 3.261 5.59-0.466 2.795-3.261-2.329-6.521 0-10.248 0.932-2.795 0.932 1.863 3.726 2.795 5.589 0.932 1.863 1.863 3.726 1.398 6.056l-5.124-5.59c-6.055 3.261-9.782 9.316-14.906 13.974-2.329 1.863-1.397 5.124-1.397 7.918-3.261 0-6.987-0.932-8.85 0.932-1.397 1.863-0.932 4.658-0.932 7.453-4.658-0.466-5.124-7.453-9.315-6.056-4.192 0.932-8.85 1.397-12.577 3.727 2.795 5.59-4.658 2.329-3.726 3.26-6.987-4.192-13.042-7.453-20.495-4.658-15.837-5.124-35.4-2.795-49.84-0.931 0-2.329 0.466-4.658-0.466-5.124-0.932 2.329-3.726 1.397-3.26 1.397-8.85-6.055-17.7-9.782-27.016-14.905-8.384 0.932-16.303-3.261-18.632-5.59-6.521-6.055-13.974-2.795-20.029-4.192-13.042-3.261-17.7-16.769-19.098-26.084-0.932-4.658-4.658-6.521-6.055-6.056-6.055-19.563-15.371-37.263-22.824-55.429-1.863-4.658-1.397-9.316-1.397-14.44 2.329 0.932 4.658 0.466 4.192-2.794-2.329-15.371-7.918-27.016-13.974-38.195 3.261-15.837 3.726-34.469 11.179-48.443 6.521-12.576 18.632-19.098 27.016-29.811 2.795-3.726 2.795-8.85 5.59-12.11 9.316-9.316 18.632-19.098 28.879-27.482 4.658-3.726 10.247 0 17.234-1.397 2.329-8.384 11.645-15.837 20.495-13.508 3.726 0.932 11.179-8.85 13.508-9.782 3.726-1.397 1.863 3.726 1.863 6.987 8.85-6.987 20.961-10.713 32.14-14.906" fill="#ffffff" fill-rule="nonzero" stroke="none" stroke-width="1" stroke-linecap="butt" stroke-linejoin="miter" stroke-miterlimit="10" stroke-dasharray="" stroke-dashoffset="0" font-family="none" font-weight="none" font-size="none" text-anchor="none" style="mix-blend-mode: normal" data-fill-palette-color="tertiary"></path></g><g transform="matrix(1,0,0,1,116.54393006507654,90)"><svg viewBox="0 0 86.91213986984692 180" height="180" width="86.91213986984692"><g><svg viewBox="0 0 86.91213986984692 180" height="180" width="86.91213986984692"><g><svg viewBox="0 0 141.9533527696793 293.99349201166183" height="180" width="86.91213986984692"><g transform="matrix(1,0,0,1,0,113.9934920116618)"><svg viewBox="0 0 141.9533527696793 180" height="180" width="141.9533527696793"><g id="textblocktransform"><svg viewBox="0 0 141.9533527696793 180" height="180" width="141.9533527696793" id="textblock"><g><svg viewBox="0 0 141.9533527696793 180" height="180" width="141.9533527696793"><g transform="matrix(1,0,0,1,0,0)"><svg width="141.9533527696793" viewBox="3.549999952316284 -34.29999923706055 27.05000114440918 34.29999923706055" height="180" data-palette-color="#ffffff"><path d="M3.55 0L3.55-34.3 30.3-34.3 30.3-28.85 9.95-28.85 9.95-20.25 28.1-20.25 28.1-14.8 9.95-14.8 9.95-5.45 30.6-5.45 30.6 0 3.55 0Z" opacity="1" transform="matrix(1,0,0,1,0,0)" fill="#ffffff" class="undefined-text-0" data-fill-palette-color="primary" id="text-0"></path></svg></g></svg></g></svg></g></svg></g><g transform="matrix(1,0,0,1,27.113090379008746,0)"><svg viewBox="0 0 87.7271720116618 87.7271720116618" height="87.7271720116618" width="87.7271720116618"><g><svg xmlns="http://www.w3.org/2000/svg" xmlns:xlink="http://www.w3.org/1999/xlink" xmlns:serif="http://www.serif.com/" viewBox="0.5 0 100 100" version="1.1" xml:space="preserve" style="" x="0" y="0" fill-rule="evenodd" clip-rule="evenodd" stroke-linejoin="round" stroke-miterlimit="2" height="87.7271720116618" width="87.7271720116618" class="icon-icon-0" data-fill-palette-color="accent" id="icon-0"><path d="M61.77 77.836c0.501-0.398 1.229-0.324 1.639 0.168 0.411 0.491 0.353 1.22-0.128 1.642-6.12 5.465-13.961 8.751-22.506 8.751-8.544 0-16.386-3.286-22.503-8.753-0.468-0.424-0.518-1.141-0.113-1.626 0.404-0.484 1.119-0.564 1.619-0.18 5.902 4.633 13.157 7.367 20.997 7.367 7.84 0 15.095-2.734 20.995-7.369Z" fill="#ffffff" data-fill-palette-color="accent"></path><path d="M20.806 45.925c0.094 0.633-0.334 1.226-0.965 1.336-0.631 0.109-1.234-0.305-1.358-0.933-1.673-8.032-0.598-16.466 3.675-23.866 4.272-7.399 11.038-12.547 18.832-15.112 0.601-0.193 1.247 0.123 1.464 0.715 0.218 0.593-0.071 1.251-0.654 1.493-6.963 2.795-12.958 7.711-16.878 14.5-3.92 6.79-5.18 14.44-4.116 21.867Z" fill="#ffffff" data-fill-palette-color="accent"></path><path d="M32.076 73.706c0.596 0.235 0.895 0.902 0.675 1.503-0.221 0.601-0.881 0.916-1.487 0.71-7.793-2.567-14.559-7.715-18.831-15.115-4.273-7.4-5.348-15.833-3.672-23.865 0.134-0.617 0.73-1.019 1.352-0.911 0.622 0.108 1.048 0.687 0.965 1.313-1.061 7.427 0.199 15.077 4.119 21.867 3.92 6.79 9.915 11.706 16.879 14.498Z" fill="#ffffff" data-fill-palette-color="accent"></path><path d="M39.23 22.274c-0.501 0.399-1.229 0.324-1.639-0.167-0.411-0.492-0.353-1.221 0.128-1.643 6.12-5.465 13.961-8.75 22.506-8.75 8.544 0 16.386 3.285 22.503 8.753 0.468 0.424 0.518 1.141 0.113 1.625-0.404 0.485-1.119 0.564-1.619 0.18-5.902-4.632-13.157-7.366-20.997-7.366-7.84 0-15.095 2.734-20.995 7.368Z" fill="#ffffff" data-fill-palette-color="accent"></path><path d="M80.194 54.075c-0.094-0.633 0.334-1.226 0.965-1.336 0.631-0.109 1.234 0.305 1.358 0.933 1.673 8.032 0.598 16.466-3.675 23.866-4.272 7.399-11.038 12.547-18.832 15.112-0.601 0.193-1.247-0.123-1.464-0.715-0.218-0.593 0.071-1.251 0.654-1.493 6.963-2.795 12.958-7.711 16.878-14.5 3.92-6.79 5.18-14.44 4.116-21.867Z" fill="#ffffff" data-fill-palette-color="accent"></path><path d="M68.924 26.404c-0.596-0.234-0.895-0.902-0.675-1.503 0.221-0.601 0.881-0.916 1.487-0.71 7.793 2.568 14.559 7.716 18.831 15.115 4.273 7.4 5.348 15.834 3.672 23.865-0.134 0.617-0.73 1.019-1.352 0.911-0.622-0.108-1.048-0.687-0.965-1.313 1.061-7.427-0.199-15.077-4.119-21.867-3.92-6.789-9.915-11.705-16.879-14.498Z" fill="#ffffff" data-fill-palette-color="accent"></path></svg></g></svg></g><g></g></svg></g></svg></g></svg></g></svg></g><defs></defs></svg><rect width="320" height="360" fill="none" stroke="none" visibility="hidden"></rect></g></svg></g></svg>